<?xml version="1.0" standalone="no"?><!DOCTYPE svg PUBLIC "-//W3C//DTD SVG 1.1//EN" "http://www.w3.org/Graphics/SVG/1.1/DTD/svg11.dtd"><svg t="1586668884269" class="icon" viewBox="0 0 1024 1024" version="1.1" xmlns="http://www.w3.org/2000/svg" p-id="3774" width="32" height="32" xmlns:xlink="http://www.w3.org/1999/xlink"><defs><style type="text/css"></style></defs><path d="M648.31705 242.887917c-3.914594 45.409292-6.022452 68.896856-6.444024 70.402469h-2.348757c-6.203126-22.704646-21.078584-41.675371-44.626372-56.851951a145.382002 145.382002 0 0 0-80.821312-22.825095c-77.448739 0-140.624265 31.01563-189.647028 92.986666-49.022763 61.971036-73.534144 139.901571-73.534145 233.851828 0 71.546735 17.766235 128.157788 53.358929 169.712711 35.652919 41.554922 82.025802 62.392607 139.239101 62.392607 87.867581 0 147.429636-48.300069 178.565715-144.96043h2.890777c0.782919 96.660362 47.276252 144.960431 139.479999 144.96043 72.389879 0 133.63822-31.6781 183.805249-95.0343 50.227253-63.295975 75.280656-144.960431 75.280656-245.05359 0-134.360914-46.734231-243.367304-140.323142-327.079393C789.603785 41.617555 670.841022-0.238489 526.904408-0.238489c-154.054334 0-280.405386 50.347703-378.992933 150.982883C49.263704 251.439799-0.060181 377.790852-0.060181 529.797551c0 147.068289 46.975129 266.132174 140.925387 357.131431 93.950258 91.059481 217.410534 136.528997 370.320602 136.528997 109.307512 0 200.306769-15.357254 273.118218-46.131986v-82.025802c-74.738635 34.267754-163.027788 51.371519-264.987908 51.371519-131.470137 0-235.357442-38.483471-311.60169-115.450413-76.244248-76.966942-114.366372-178.62594-114.366372-304.856543 0-128.940707 40.651554-236.381259 121.954662-322.201207 81.303108-85.819947 183.985923-128.760033 308.108668-128.760033 127.194196 0 226.805559 35.652919 298.773866 106.838306 71.968307 71.185388 107.982573 163.027788 107.982573 275.406751 0 76.966942-14.51411 139.419774-43.482107 187.358496-28.967996 47.938722-65.644732 71.908082-109.969982 71.908082-47.878497 0-71.787633-41.374248-71.787633-124.182969 0-8.431433 9.696148-125.086338 29.14867-349.844263h-85.759723z m-255.351984 139.720896c31.316753-48.540967 72.088756-72.751226 122.255785-72.751225 73.955716 0 110.87335 43.482107 110.873349 130.44632 0 82.808721-14.634559 149.356821-44.024127 199.824972-29.389568 50.407927-69.559326 75.581778-120.509274 75.581779-36.977858 0-65.464058-14.092539-85.518825-42.398065-19.994542-28.305527-30.052038-65.704956-30.052037-112.318739 0-70.462694 15.658376-129.904299 46.975129-178.385042z" p-id="3775" fill="#d81e06"></path></svg>