<?xml version="1.0" standalone="no"?><!DOCTYPE svg PUBLIC "-//W3C//DTD SVG 1.1//EN" "http://www.w3.org/Graphics/SVG/1.1/DTD/svg11.dtd"><svg t="1586662192813" class="icon" viewBox="0 0 1024 1024" version="1.1" xmlns="http://www.w3.org/2000/svg" p-id="11725" xmlns:xlink="http://www.w3.org/1999/xlink" width="32" height="32"><defs><style type="text/css"></style></defs><path d="M0.002133 525.196845c0 113.544178 31.819668 215.571853 95.459005 306.168334 63.639336 90.596481 146.088959 154.022549 247.391521 190.278203 4.009449 0.682459 7.336438 1.023689 10.023622 1.02369a12.198961 12.198961 0 0 0 6.483364-1.535534 20.985626 20.985626 0 0 0 4.009449-3.071067c0.981035-1.023689 1.706148-2.729837 2.004724-5.118445a41.416753 41.416753 0 0 0 0.511845-5.118446V904.686908a247.818059 247.818059 0 0 1-65.98529-0.511845c-19.322131-3.071067-34.506852-7.890936-45.468856-14.3743a117.766895 117.766895 0 0 1-29.004523-24.099346c-8.317474-9.554431-13.990417-18.255788-16.976177-26.146725s-5.971519-16.080449-8.957279-24.611191a258.481486 258.481486 0 0 0-5.544983-14.886145c-5.971519-10.236891-14.971452-19.620707-26.999798-28.151449-11.985693-8.530742-20.985626-15.39799-26.999799-20.559089-5.971519-5.118445-6.653979-10.108929-2.004725-14.843491 33.312548-17.786597 70.975774 4.777216 112.947026 67.691439 22.691774 34.890735 62.317071 45.17028 119.003853 30.795979a147.240609 147.240609 0 0 1 39.966527-71.828849c-77.331177-14.331647-134.615111-43.762707-171.937108-88.207873-37.321997-44.48782-56.004322-98.530071-56.004322-162.084101 0-59.501926 18.341096-111.15557 55.023287-154.918276-14.71553-44.402513-12.710806-91.278941 5.971519-140.501323 19.322131-1.364919 40.990216 2.559223 65.004255 11.772424 23.971385 9.255855 40.776947 17.104138 50.45934 23.630156 9.639739 6.483364 18.170481 12.454883 25.506919 17.914558 37.961802-10.91935 80.786128-16.379025 128.472976-16.379025 47.644195 0 90.80975 5.459675 129.454012 16.421679 8.658703-6.184788 18.341096-12.668152 29.004523-19.5354 10.663428-6.824594 26.957145-14.161032 48.923806-22.051968 22.009315-7.848283 42.312481-11.089965 60.994806-9.725046 17.999866 48.539923 20.34582 94.691238 6.995209 138.453945 37.321997 43.762707 56.004322 95.416351 56.004322 154.918276 0 63.554029-19.023555 117.766895-56.985358 162.553292-37.961802 44.786396-95.288389 74.046842-171.937107 87.696029 28.663294 29.43106 42.99494 65.004255 42.99494 106.67693v132.31181c0 0.682459 0.34123 1.706148 0.981036 3.113721 0 4.094756 0.170615 7.165823 0.511844 9.213201 0.34123 2.047378 1.83411 4.094756 4.521293 6.184788 2.64453 2.047378 6.653979 3.113721 11.985693 3.071068 101.942368-35.573195 185.41568-98.956609 250.377281-190.278203 65.004255-91.278941 97.506382-194.074383 97.506383-308.258367 0-71.103736-13.478573-139.136404-40.521025-204.098005-26.957145-64.961601-63.298107-120.880616-108.937577-167.71439-45.63947-46.833774-100.108259-84.070464-163.449019-111.752722A491.07217 491.07217 0 0 0 511.846661 0.001706c-69.31228 0-135.6388 13.862456-198.936907 41.544714-63.298107 27.724912-117.766895 64.961601-163.406365 111.795376C103.863919 200.17557 67.522957 256.094585 40.523158 321.056186A526.730672 526.730672 0 0 0 0.002133 525.154191v0.042654z" p-id="11726" fill="#ffb6c1"></path></svg>