<?xml version="1.0" standalone="no"?><!DOCTYPE svg PUBLIC "-//W3C//DTD SVG 1.1//EN" "http://www.w3.org/Graphics/SVG/1.1/DTD/svg11.dtd"><svg t="1586661909093" class="icon" viewBox="0 0 1024 1024" version="1.1" xmlns="http://www.w3.org/2000/svg" p-id="6508" xmlns:xlink="http://www.w3.org/1999/xlink" width="32" height="32"><defs><style type="text/css"></style></defs><path d="M729.6 738.133333c8.533333 25.6 12.8 55.466667 12.8 81.066667V981.333333c0 25.6-17.066667 42.666667-42.666667 42.666667s-42.666667-17.066667-42.666666-42.666667v-166.4c4.266667-34.133333-8.533333-59.733333-29.866667-81.066666-12.8-12.8-17.066667-29.866667-8.533333-42.666667 4.266667-17.066667 21.333333-25.6 34.133333-29.866667 128-12.8 243.2-55.466667 243.2-256 0-46.933333-17.066667-93.866667-51.2-132.266666-12.8-12.8-12.8-29.866667-8.533333-42.666667 12.8-34.133333 12.8-68.266667 4.266666-102.4-21.333333 4.266667-55.466667 17.066667-115.2 55.466667-8.533333 8.533333-21.333333 8.533333-34.133333 4.266666-89.6-25.6-192-25.6-281.6 0-17.066667 8.533333-29.866667 8.533333-42.666667 0C315.733333 149.333333 277.333333 136.533333 256 132.266667c-12.8 34.133333-12.8 68.266667 4.266667 102.4 4.266667 17.066667 4.266667 34.133333-8.533334 42.666666-38.4 34.133333-55.466667 81.066667-55.466666 128 0 200.533333 119.466667 243.2 243.2 256 17.066667 0 29.866667 12.8 34.133333 29.866667 4.266667 17.066667 0 34.133333-8.533333 42.666667-21.333333 21.333333-29.866667 46.933333-29.866667 76.8v166.4c0 25.6-17.066667 42.666667-42.666667 42.666666s-42.666667-17.066667-42.666666-42.666666v-72.533334c-132.266667 21.333333-187.733333-51.2-226.133334-98.133333-17.066667-21.333333-29.866667-38.4-46.933333-42.666667-21.333333-4.266667-38.4-29.866667-29.866667-51.2 4.266667-21.333333 29.866667-38.4 51.2-29.866666 42.666667 12.8 68.266667 42.666667 93.866667 72.533333 34.133333 46.933333 64 81.066667 157.866667 64v-4.266667c0-25.6 4.266667-55.466667 12.8-76.8-123.733333-25.6-251.733333-102.4-251.733334-328.533333 0-64 21.333333-123.733333 59.733334-170.666667-17.066667-55.466667-12.8-110.933333 12.8-166.4 4.266667-12.8 12.8-21.333333 25.6-25.6 17.066667-4.266667 76.8-12.8 192 59.733334 98.133333-21.333333 196.266667-21.333333 290.133333 0C806.4 34.133333 866.133333 42.666667 883.2 46.933333c12.8 4.266667 21.333333 12.8 25.6 25.6 21.333333 55.466667 25.6 110.933333 12.8 166.4 38.4 42.666667 59.733333 102.4 59.733333 166.4 0 243.2-149.333333 311.466667-251.733333 332.8z" p-id="6509" fill="#ffb6c1"></path></svg>