<?xml version="1.0" standalone="no"?><!DOCTYPE svg PUBLIC "-//W3C//DTD SVG 1.1//EN" "http://www.w3.org/Graphics/SVG/1.1/DTD/svg11.dtd"><svg t="1586843299785" class="icon" viewBox="0 0 1024 1024" version="1.1" xmlns="http://www.w3.org/2000/svg" p-id="26818" width="32" height="32" xmlns:xlink="http://www.w3.org/1999/xlink"><defs><style type="text/css"></style></defs><path d="M512 0C229.229714 0 0 229.229714 0 512s229.229714 512 512 512 512-229.229714 512-512S794.770286 0 512 0zM354.113829 679.592229l-20.6848 20.692114a14.628571 14.628571 0 0 1-20.692115-20.692114l20.692115-20.6848a14.628571 14.628571 0 0 1 20.6848 20.6848z m172.024685 115.704685a14.628571 14.628571 0 0 1-29.257143 0v-29.257143a14.628571 14.628571 0 0 1 29.257143 0z m185.263543-95.012571a14.628571 14.628571 0 0 1-20.6848 0l-20.6848-20.692114a14.628571 14.628571 0 0 1 20.6848-20.6848l20.6848 20.6848a14.628571 14.628571 0 0 1 0 20.692114z m58.602057-133.653943h-144.969143a9.435429 9.435429 0 0 1 7.687315 10.064457 121.080686 121.080686 0 0 1-241.298286 0 9.435429 9.435429 0 0 1 7.687314-10.064457h-145.115428a21.942857 21.942857 0 0 1-21.877029-23.749486c11.644343-139.044571 124.5696-249.270857 264.777143-256.731428v-57.4464a14.628571 14.628571 0 1 1 29.257143 0v57.409828c140.6464 6.977829 254.076343 117.4016 265.742628 256.768a21.942857 21.942857 0 0 1-21.891657 23.749486z" fill="#3D3D3D" p-id="26819"></path><path d="M526.138514 286.112914v-57.409828a14.628571 14.628571 0 1 0-29.257143 0v57.468343c5.010286-0.263314 10.042514-0.4096 15.118629-0.4096q7.109486 0 14.138514 0.351085z" fill="#FFFFFF" p-id="26820"></path><path d="M526.138514 286.112914q-7.021714-0.351086-14.138514-0.351085c-5.076114 0-10.108343 0.146286-15.118629 0.4096-140.192914 7.438629-253.118171 117.664914-264.777142 256.731428a21.942857 21.942857 0 0 0 21.877028 23.749486h145.115429a9.0624 9.0624 0 0 1 1.7408-0.175543h222.456685a9.0624 9.0624 0 0 1 1.7408 0.175543h144.969143a21.942857 21.942857 0 0 0 21.877029-23.749486c-11.666286-139.388343-125.096229-249.812114-265.742629-256.789943z" fill="#FFED83" p-id="26821"></path><path d="M400.822857 566.454857a9.0624 9.0624 0 0 0-1.7408 0.175543 9.435429 9.435429 0 0 0-7.687314 10.064457 121.080686 121.080686 0 0 0 241.298286 0 9.435429 9.435429 0 0 0-7.687315-10.064457 9.0624 9.0624 0 0 0-1.7408-0.175543z" fill="#F2C63D" p-id="26822"></path><path d="M511.509943 751.4112a14.628571 14.628571 0 0 0-14.628572 14.628571v29.257143a14.628571 14.628571 0 0 0 29.257143 0v-29.257143a14.628571 14.628571 0 0 0-14.628571-14.628571zM333.429029 658.907429l-20.692115 20.6848a14.628571 14.628571 0 0 0 20.692115 20.692114l20.6848-20.692114a14.628571 14.628571 0 0 0-20.6848-20.6848zM690.717257 658.907429a14.628571 14.628571 0 0 0-20.6848 20.6848l20.6848 20.692114a14.628571 14.628571 0 1 0 20.6848-20.692114z" fill="#FFFFFF" p-id="26823"></path></svg>