<?xml version="1.0" standalone="no"?><!DOCTYPE svg PUBLIC "-//W3C//DTD SVG 1.1//EN" "http://www.w3.org/Graphics/SVG/1.1/DTD/svg11.dtd"><svg t="1586843368388" class="icon" viewBox="0 0 1137 1024" version="1.1" xmlns="http://www.w3.org/2000/svg" p-id="27056" xmlns:xlink="http://www.w3.org/1999/xlink" width="35.53125" height="32"><defs><style type="text/css"></style></defs><path d="M503.5776 763.776c135.7568 0.896 246.528-108.4416 247.4496-244.1984H256.1536c1.024 135.7568 111.6928 245.0944 247.424 244.224z m18.3808 36.2496a21.9136 21.9136 0 0 0-24.832 16.9472v65.2288a22.016 22.016 0 0 0 24.832 16.9472c11.52 1.792 22.528-5.5808 25.3696-16.9472v-65.2288a22.4512 22.4512 0 0 0-25.344-16.9472z m153.6-22.4a21.376 21.376 0 0 0-5.9392 29.3632l45.696 47.0016a23.04 23.04 0 0 0 30.2848-4.9408 21.888 21.888 0 0 0 5.9392-29.3632l-45.6704-46.976a22.8864 22.8864 0 0 0-30.2848 4.9152z m-311.6032 0c9.728 6.6048 12.288 19.6608 5.9392 29.3632l-45.6704 47.0016a22.3488 22.3488 0 0 1-29.7728-4.9408 21.6832 21.6832 0 0 1-6.4512-29.3632l46.1824-46.976a22.2208 22.2208 0 0 1 29.7728 4.9152z m644.992-170.5728c-30.7968-274.3552-278.3744-471.808-552.704-441.0368A500.1984 500.1984 0 0 0 15.1552 607.0528a44.5952 44.5952 0 0 0 40.2432 48.0256h908.7488a44.544 44.544 0 0 0 44.7744-44.0064v-4.4032 0.384zM456.8832 54.3488c0-27.6992 22.528-50.2272 50.176-50.2272 27.7248 0 50.2272 22.528 50.2272 50.2272v238.4896c0 27.6992-22.528 50.2272-50.2016 50.2272a50.2528 50.2528 0 0 1-50.2016-50.2272V54.3488z" p-id="27057" fill="#8a8a8a"></path></svg>