<?xml version="1.0" standalone="no"?><!DOCTYPE svg PUBLIC "-//W3C//DTD SVG 1.1//EN" "http://www.w3.org/Graphics/SVG/1.1/DTD/svg11.dtd"><svg t="1586623683073" class="icon" viewBox="0 0 1025 1024" version="1.1" xmlns="http://www.w3.org/2000/svg" p-id="1787" width="32.03125" height="32" xmlns:xlink="http://www.w3.org/1999/xlink"><defs><style type="text/css"></style></defs><path d="M1.806315 509.380843s17.159993-207.184336 126.261422-311.408714C237.169166 93.747751 341.393544 24.385253 561.944611 10.83789s358.011642 209.532545 379.32616 249.271477c21.314518 39.738931 84.716176 157.691304 84.716176 249.271476s0.722526 283.591462-129.693421 368.849533C765.87758 963.488446 640.338684 1013.342741 550.203563 1008.646322c-90.135121-4.696419-317.730817-23.662727-419.606985-166.000353C28.539778 700.488975 1.806315 654.969836 1.806315 509.380843z" fill="#FDD528" p-id="1788"></path><path d="M531.959781 118.494267c29.442935-8.309049 82.367966-15.353678 139.086259 15.714941 5.599577 3.070736 11.741048-2.890104 8.670312-8.489681-19.327571-35.584406-69.904392-100.431117-153.71741-18.06315-4.696419 4.696419-0.541895 12.644205 5.960839 10.83789z" fill="#FFEC4C" p-id="1789"></path><path d="M326.58176 914.356677c-53.286294-55.092609-124.455107-124.455107-117.410478-362.708062 7.044629-238.252955 64.124184-322.607867 104.946905-385.828894 22.217675-34.500617 99.166696-105.488799 193.817604-150.285412-184.244135 20.953255-280.159464 86.883754-379.868054 182.257189C18.966308 302.196507 1.806315 509.380843 1.806315 509.380843c0 145.588993 26.733463 191.108132 128.609631 333.265126 101.876169 142.156994 329.471865 161.123302 419.606986 166.000353 0 0-169.974246-39.197037-223.441172-94.289645z" fill="#FAB920" p-id="1790"></path><path d="M564.473452 859.264068s284.49462 5.238314 334.710178-261.193156c3.973893-20.772623-10.115364-40.642089-31.24925-42.990298-92.122067-9.934733-346.99312-30.165461-637.087317 9.57347-20.230729 2.709473-33.958723 22.037044-30.165461 42.08714 13.908626 74.239548 76.768389 235.001588 363.79185 252.522844z" fill="#88281F" p-id="1791"></path><path d="M595.361439 839.755865s-173.948139 13.005468-246.562003-59.789028c-0.180632-0.180632 8.309049-6.322103 8.850943-6.502734 9.212207-5.780208 19.508203-9.754101 29.804199-12.824837 18.06315-5.418945 37.029458-8.128418 55.815134-9.031575 11.199153-0.541895 22.217675-0.722526 33.416829-0.361263 11.560416 0.361263 23.120833 1.625684 34.139354 4.877051 11.018522 3.431999 21.495149 8.489681 31.610514 14.089257 14.631152 8.128418 28.539778 18.424413 38.47451 31.971776 8.309049 10.657259 13.547363 23.662727 14.45052 37.571353z" fill="#FF594B" p-id="1792"></path><path d="M299.848298 572.421238s248.910213-15.353678 527.443993-9.573469c0 0-14.269889 55.634503-271.489151 55.634503-57.982713 0.180632-245.297583 22.75957-255.954842-46.061034z" fill="#FCFFFF" p-id="1793"></path><path d="M984.080437 524.373258s56.537661 48.04798 17.701888 126.08079c-0.903158 1.806315-1.986947 3.431999-3.251367 4.877051-7.405892 9.031575-36.126301 41.545246-68.820603 44.796613 0 0-95.554066 3.251367-104.946905-114.701005 0 0 3.973893-80.742283-3.251367-136.196155-2.167578-16.618098 4.877051-25.469042 19.327571-21.67578 25.107779 6.683366 74.42018 24.746516 143.240783 96.818486z" fill="#7DDAFF" p-id="1794"></path><path d="M969.449286 509.01958s56.537661 41.003352 17.701887 107.475745c-0.903158 1.445052-1.986947 2.890104-3.251367 4.154525-7.405892 7.767155-36.126301 35.403775-68.820603 38.293879 0 0-81.826072 17.521256-91.399542-82.909861 0 0-9.57347-83.632387-16.79873-130.95784-2.167578-14.269889 10.83789-26.552831 25.288411-23.301465 25.107779 5.780208 68.45934 25.830305 137.279944 87.245017z" fill="#00B6FF" p-id="1795"></path><path d="M936.032457 505.587582c22.398307 29.081672 29.98483 42.267772 20.050097 50.034926-10.115364 7.767155-28.178515-10.657259-50.576821-39.558299-22.398307-29.081672-52.383136-57.982713-42.267772-65.930499 9.934733-7.767155 50.39619 26.3722 72.794496 55.453872z" fill="#7DDAFF" p-id="1796"></path><path d="M111.269007 540.26883s-56.537661 48.04798-17.701888 126.080791c0.903158 1.806315 1.986947 3.431999 3.251368 4.87705 7.405892 9.031575 36.126301 41.545246 68.820603 44.796614 0 0 95.554066 3.251367 104.946904-114.701006 0 0-3.973893-80.742283 3.251367-136.196154 2.167578-16.618098-4.877051-25.469042-19.327571-21.675781-25.107779 6.863997-74.42018 24.746516-143.240783 96.818486z" fill="#7DDAFF" p-id="1797"></path><path d="M126.08079 525.095784s-56.537661 41.003352-17.701887 107.475745c0.903158 1.445052 1.986947 2.890104 3.251367 4.154525 7.405892 7.767155 36.126301 35.403775 68.820603 38.293879 0 0 81.826072 17.521256 91.399542-82.909861 0 0 9.57347-83.632387 16.798729-130.957841 2.167578-14.269889-10.83789-26.552831-25.28841-23.301464-25.107779 5.780208-68.45934 25.830305-137.279944 87.245017z" fill="#00B6FF" p-id="1798"></path><path d="M159.497619 521.483154c-22.398307 29.081672-29.98483 42.267772-20.050097 50.034927 10.115364 7.767155 28.178515-10.657259 50.576821-39.5583 22.398307-29.081672 52.383136-58.163345 42.267772-65.930499-10.115364-7.767155-50.39619 26.552831-72.794496 55.453872z" fill="#7DDAFF" p-id="1799"></path><path d="M155.343094 416.355618s-13.005468-13.727994 8.309049-30.707356c21.314518-16.79873 77.490916-61.956606 140.711942-60.692185 63.221027 1.264421 106.933851 13.005468 139.086259 40.280825 18.966308 15.353678 13.005468 30.887987 8.309049 35.584407-4.696419 4.696419-16.618098 4.696419-36.668195-5.96084-20.230729-10.657259-99.527959-35.042512-161.123302-9.212207-61.956606 25.830305-86.703122 42.629035-98.624802 30.707356zM692.179926 385.648262s-14.269889-30.887987 10.657259-46.422296 104.224378-48.770506 187.31487-14.450521c26.010937 13.727994 43.893456 45.699771 27.275357 60.692186-16.618098 15.173046-29.623567-3.973893-43.893455-11.560416-14.269889-7.586523-68.820603-25.469042-106.75322-6.502734-37.751984 19.146939-60.330923 41.003352-74.600811 18.243781z" fill="#88281F" p-id="1800"></path></svg>