<?xml version="1.0" standalone="no"?><!DOCTYPE svg PUBLIC "-//W3C//DTD SVG 1.1//EN" "http://www.w3.org/Graphics/SVG/1.1/DTD/svg11.dtd"><svg t="1586661188568" class="icon" viewBox="0 0 1024 1024" version="1.1" xmlns="http://www.w3.org/2000/svg" p-id="2418" xmlns:xlink="http://www.w3.org/1999/xlink" width="32" height="32"><defs><style type="text/css"></style></defs><path d="M207.644 0c-68.266 0-122.31 54.044-122.31 119.467v785.066c0 65.423 54.044 119.467 122.31 119.467H819.2c65.422 0 122.311-54.044 122.311-119.467V241.778L694.044 0h-486.4z m577.423 952.889H236.089c-45.511 0-73.956-25.6-73.956-71.111V145.067c0-45.511 28.445-68.267 73.956-68.267h432.355v130.844c0 25.6 22.756 48.356 48.356 48.356h150.756v625.778c2.844 45.51-34.134 71.11-82.49 71.11zM665.6 694.044H358.4c-17.067 0-31.289-14.222-31.289-31.288 0-17.067 14.222-31.29 31.289-31.29h304.356c17.066 0 31.288 14.223 31.288 31.29s-11.377 31.288-28.444 31.288z m0-119.466H358.4c-17.067 0-31.289-14.222-31.289-31.29 0-17.066 14.222-31.288 31.289-31.288h304.356c17.066 0 31.288 14.222 31.288 31.289s-11.377 31.289-28.444 31.289z m0-122.311H358.4c-17.067 0-31.289-14.223-31.289-31.29 0-17.066 14.222-31.288 31.289-31.288h304.356c17.066 0 31.288 14.222 31.288 31.289s-11.377 31.289-28.444 31.289z" p-id="2419" fill="#ffb6c1"></path></svg>