<?xml version="1.0" standalone="no"?><!DOCTYPE svg PUBLIC "-//W3C//DTD SVG 1.1//EN" "http://www.w3.org/Graphics/SVG/1.1/DTD/svg11.dtd"><svg t="1586621027143" class="icon" viewBox="0 0 1024 1024" version="1.1" xmlns="http://www.w3.org/2000/svg" p-id="2298" width="16" height="16" xmlns:xlink="http://www.w3.org/1999/xlink"><defs><style type="text/css"></style></defs><path d="M1023.107282 511.553641c0 282.308923-228.745846 511.553641-511.553641 511.553641C229.270974 1023.107282 0 794.361436 0 511.553641 0 229.270974 228.745846 0 511.553641 0s511.553641 229.270974 511.553641 511.553641z" fill="#FFA03F" p-id="2299"></path><path d="M240.193641 491.782564c-11.447795 0-22.370462-5.697641-28.094359-16.620308a32.768 32.768 0 0 1 11.972923-44.189538l72.257641-41.065026-73.307897-41.590154a32.295385 32.295385 0 0 1-11.946667-44.189538 32.295385 32.295385 0 0 1 44.189539-11.946667l122.696205 69.658257c10.397538 5.723897 16.620308 16.620308 16.620307 28.068102 0 11.447795-6.222769 22.344205-16.620307 28.094359l-122.171077 69.632a33.345641 33.345641 0 0 1-15.596308 4.17477z m544.295385-0.498872c-5.723897 0-10.922667-1.575385-16.121436-4.148513l-120.070564-69.684512a32.11159 32.11159 0 0 1-11.447795-43.664411 30.194872 30.194872 0 0 1 11.447795-11.421538l119.046564-69.684513a32.11159 32.11159 0 0 1 43.66441 11.447795 32.11159 32.11159 0 0 1-11.447795 43.66441L728.352821 389.382564l72.257641 42.115282c15.071179 8.84841 20.269949 28.593231 11.447794 43.66441a31.455179 31.455179 0 0 1-27.56923 16.121436z m-455.916308 60.836103c-2.625641 0-4.699897 0.525128-7.299282 1.050256a26.046359 26.046359 0 0 0-17.670564 32.216616c15.071179 53.563077 78.506667 154.387692 209.001025 154.387692s192.87959-100.325744 207.425641-153.337436a26.361436 26.361436 0 0 0-18.195692-32.242872 26.361436 26.361436 0 0 0-32.242872 18.195693c-1.549128 4.673641-34.290872 115.396923-157.512205 115.396923s-157.538462-112.27241-159.08759-116.972308a26.072615 26.072615 0 0 0-24.418461-18.694564z" fill="#33271A" p-id="2300"></path></svg>